<?xml version="1.0" standalone="no"?>
<!DOCTYPE svg PUBLIC "-//W3C//DTD SVG 20010904//EN"
 "http://www.w3.org/TR/2001/REC-SVG-20010904/DTD/svg10.dtd">
<svg version="1.0" xmlns="http://www.w3.org/2000/svg"
 width="2000.000000pt" height="2000.000000pt" viewBox="0 0 2000.000000 2000.000000"
 preserveAspectRatio="xMidYMid meet">

<g transform="translate(0.000000,2000.000000) scale(0.100000,-0.100000)"
fill="#000000" stroke="none">
<path d="M7950 16609 c-151 -10 -1449 -74 -1785 -89 -816 -35 -1948 -79 -2605
-101 l-355 -12 -46 -33 c-26 -19 -54 -34 -64 -34 -10 0 -39 16 -66 36 -57 41
-62 40 -102 -34 -69 -126 -75 -244 -53 -977 41 -1372 60 -2362 71 -3780 5
-566 9 -748 21 -810 15 -87 62 -233 114 -358 l32 -77 28 30 c39 42 81 38 135
-11 20 -18 28 -18 275 1 343 26 649 48 855 60 536 32 1648 63 2043 58 l242 -3
-188 -305 c-445 -721 -779 -1243 -847 -1322 -52 -61 -105 -175 -112 -241 -6
-63 12 -127 47 -165 17 -18 25 -20 48 -11 24 9 30 7 58 -24 17 -18 33 -38 35
-43 2 -5 822 -482 1821 -1059 1000 -578 1818 -1053 1818 -1057 0 -4 -40 -52
-89 -105 -82 -90 -88 -99 -79 -124 15 -42 6 -72 -22 -81 -27 -8 644 0 695 8
21 3 26 2 15 -4 -8 -6 -186 -13 -395 -17 -209 -4 -381 -8 -383 -10 -1 -1 22
-54 52 -118 67 -143 165 -314 223 -389 67 -88 197 -172 348 -227 l61 -22 1144
9 c630 6 1147 8 1150 5 3 -2 -120 -128 -272 -279 -152 -151 -271 -275 -265
-275 7 -1 62 -5 122 -9 l110 -7 -122 -1 -123 -2 0 -29 c0 -41 -24 -61 -71 -61
l-39 0 0 -62 c1 -137 48 -377 106 -538 37 -104 93 -214 147 -286 l45 -61 328
-7 c621 -12 1679 -47 2624 -86 657 -27 1560 -68 1643 -75 l67 -5 0 62 c0 65
14 133 29 143 16 9 42 -7 65 -41 l23 -34 931 1295 c923 1284 930 1295 920
1327 -9 31 -12 33 -49 30 l-38 -4 -383 -537 c-411 -577 -1289 -1810 -1372
-1928 -37 -52 -54 -69 -63 -61 -6 5 -22 8 -35 6 -22 -3 -35 -27 -55 -108 l-9
-35 -31 85 c-70 185 -143 495 -159 670 l-6 76 40 -4 c34 -3 43 0 57 21 9 14
20 50 24 80 7 51 15 64 122 193 379 457 887 1118 1395 1814 355 486 338 461
324 504 -14 43 18 41 -365 21 -890 -46 -2528 -93 -2918 -83 l-129 3 428 620
c235 341 564 820 732 1063 l305 444 -21 21 c-19 18 -25 19 -59 8 -36 -11 -79
-72 -776 -1084 -406 -590 -969 -1406 -1250 -1814 l-512 -742 -40 -3 c-37 -3
-40 -5 -43 -36 -2 -18 3 -55 11 -82 l15 -50 -33 0 c-78 0 -267 127 -374 253
-77 90 -158 268 -195 428 l-14 56 44 -5 c39 -4 44 -2 55 22 10 20 9 38 0 81
l-12 55 91 113 c677 830 1696 2129 2372 3024 247 328 260 346 254 378 -4 19
-10 37 -15 39 -4 3 -75 -8 -157 -24 -1091 -214 -2653 -482 -3393 -582 l-175
-23 -20 -35 c-12 -19 -373 -649 -802 -1400 -518 -905 -786 -1364 -795 -1362
-8 2 -22 5 -31 7 -28 6 -92 40 -483 260 -203 114 -444 249 -535 300 -91 51
-345 194 -565 317 -220 124 -535 300 -700 393 -165 93 -406 229 -535 303 -129
74 -542 307 -916 517 l-681 381 216 360 c667 1105 1841 2955 2852 4491 l297
451 -32 31 -31 30 -205 -332 c-689 -1119 -1373 -2194 -2059 -3236 -331 -504
-780 -1171 -787 -1171 -2 0 90 141 205 313 195 293 746 1132 779 1187 13 21
11 21 -10 -4 l-24 -28 -50 25 c-99 51 -112 9 132 412 396 656 715 1186 909
1511 l191 321 13 204 c45 735 178 2582 190 2632 8 34 5 42 -27 84 l-35 46
-351 -7 c-1230 -23 -2963 -101 -4470 -202 l-389 -26 -39 22 c-53 30 -93 29
-126 -3 -16 -15 -31 -27 -34 -27 -13 0 -50 188 -55 275 -5 78 8 199 21 213 3
2 29 -6 59 -18 64 -27 87 -23 148 23 l44 34 2415 67 c1328 37 2424 67 2435 66
15 0 25 12 38 46 16 44 16 46 -5 75 -12 16 -22 28 -22 28 -1 -1 -57 -5 -126
-10z m-67 -646 c-35 -2 -91 -2 -125 0 -35 2 -7 3 62 3 69 0 97 -1 63 -3z
m-723 -24 c-715 -27 -1682 -66 -2295 -94 -704 -32 -893 -39 -605 -20 560 36
1714 85 3000 128 47 2 153 3 235 4 83 0 -68 -8 -335 -18z m-3177 -136 c-24 -2
-62 -2 -85 0 -24 2 -5 4 42 4 47 0 66 -2 43 -4z m-195 -10 c-15 -2 -42 -2 -60
0 -18 2 -6 4 27 4 33 0 48 -2 33 -4z m-601 -670 c-2 -21 -4 -6 -4 32 0 39 2
55 4 38 2 -18 2 -50 0 -70z m12 -2308 c6 -231 16 -532 21 -670 5 -137 9 -288
8 -335 -1 -63 -3 -47 -8 65 -32 635 -50 1546 -48 2360 l1 690 8 -845 c4 -465
12 -1034 18 -1265z m38 -1257 c-2 -29 -3 -6 -3 52 0 58 1 81 3 53 2 -29 2 -77
0 -105z m10 -210 c-2 -24 -4 -5 -4 42 0 47 2 66 4 43 2 -24 2 -62 0 -85z m10
-190 c-2 -18 -4 -4 -4 32 0 36 2 50 4 33 2 -18 2 -48 0 -65z m12143 -1842 c0
-2 -8 -10 -17 -17 -16 -13 -17 -12 -4 4 13 16 21 21 21 13z m-157 -203 c-442
-582 -809 -1057 -1132 -1468 -292 -372 -782 -985 -788 -985 -3 0 10 19 29 43
182 223 1370 1744 1812 2320 108 141 200 257 202 257 3 0 -53 -75 -123 -167z
m547 -557 c0 -2 -8 -10 -17 -17 -16 -13 -17 -12 -4 4 13 16 21 21 21 13z
m-193 -278 c-1026 -1504 -1475 -2159 -1495 -2178 -8 -8 5 14 28 50 73 109 866
1270 1149 1680 145 212 298 433 339 493 40 59 76 107 78 107 3 0 -42 -69 -99
-152z m-7995 -938 c999 -569 1815 -1036 1814 -1038 -6 -5 -3660 2078 -3668
2091 -15 24 -8 26 15 4 12 -12 840 -488 1839 -1057z m-698 606 l355 -54 323
-183 c178 -100 708 -401 1178 -667 470 -267 974 -552 1120 -634 234 -133 390
-226 390 -233 0 -11 -72 -155 -78 -155 -4 0 -18 7 -30 16 -29 20 -33 16 -39
-41 -3 -25 -7 -45 -8 -45 -4 0 -3386 1935 -3484 1994 -52 31 -92 56 -89 56 4
0 167 -24 362 -54z m6416 -1299 c0 -2 -10 -12 -22 -23 l-23 -19 19 23 c18 21
26 27 26 19z m-40 -50 c0 -2 -10 -12 -22 -23 l-23 -19 19 23 c18 21 26 27 26
19z m-50 -61 c0 -2 -8 -10 -17 -17 -16 -13 -17 -12 -4 4 13 16 21 21 21 13z
m-40 -50 c0 -2 -8 -10 -17 -17 -16 -13 -17 -12 -4 4 13 16 21 21 21 13z m-351
-471 c-3 -2 -545 -18 -1204 -34 -660 -17 -1261 -33 -1335 -36 -74 -3 -131 -3
-127 1 4 4 555 21 1224 39 1299 34 1449 38 1442 30z m1191 -25 c-12 -16 -24
-30 -26 -30 -3 0 4 14 16 30 12 17 24 30 26 30 3 0 -4 -13 -16 -30z m-1155 10
c3 -6 -1 -7 -9 -4 -18 7 -21 14 -7 14 6 0 13 -4 16 -10z m-717 -1427 c-10 -2
-26 -2 -35 0 -10 3 -2 5 17 5 19 0 27 -2 18 -5z m255 -10 c-13 -2 -35 -2 -50
0 -16 2 -5 4 22 4 28 0 40 -2 28 -4z m270 -10 c-18 -2 -48 -2 -65 0 -18 2 -4
4 32 4 36 0 50 -2 33 -4z m310 -10 c-23 -2 -64 -2 -90 0 -26 2 -7 3 42 3 50 0
71 -1 48 -3z m370 -10 c-35 -2 -91 -2 -125 0 -35 2 -7 3 62 3 69 0 97 -1 63
-3z m460 -10 c-51 -2 -135 -2 -185 0 -51 1 -10 3 92 3 102 0 143 -2 93 -3z
m2432 -3 c8 -13 -135 -13 -155 0 -10 7 10 10 67 10 45 0 85 -4 88 -10z m-1847
-7 c-71 -2 -185 -2 -255 0 -71 1 -13 3 127 3 140 0 198 -2 128 -3z m-2185 -50
c-7 -2 -21 -2 -30 0 -10 3 -4 5 12 5 17 0 24 -2 18 -5z m210 -10 c-13 -2 -35
-2 -50 0 -16 2 -5 4 22 4 28 0 40 -2 28 -4z m224 -10 c-20 -2 -52 -2 -70 0
-17 2 0 4 38 4 39 0 53 -2 32 -4z m261 -10 c-27 -2 -69 -2 -95 0 -27 2 -5 3
47 3 52 0 74 -1 48 -3z m285 -10 c-29 -2 -78 -2 -110 0 -32 2 -8 3 52 3 61 0
87 -1 58 -3z m330 -10 c-40 -2 -107 -2 -150 0 -43 1 -10 3 72 3 83 0 118 -2
78 -3z m380 -10 c-51 -2 -135 -2 -185 0 -51 1 -10 3 92 3 102 0 143 -2 93 -3z
m525 -10 c-64 -2 -172 -2 -240 0 -68 1 -15 3 117 3 132 0 187 -2 123 -3z m700
-10 c-10 -2 -28 -2 -40 0 -13 2 -5 4 17 4 22 1 32 -1 23 -4z"/>
<path d="M7200 10990 c-6 -11 -8 -20 -6 -20 3 0 10 9 16 20 6 11 8 20 6 20 -3
0 -10 -9 -16 -20z"/>
</g>
</svg>
